<svg width="1921" height="1921" viewBox="0 0 1921 1921" fill="none" xmlns="http://www.w3.org/2000/svg">
<g style="mix-blend-mode:plus-lighter">
<path d="M1128.99 1909.74L960.5 960.555L1289.14 1866.81L1128.99 1909.74ZM877.617 1921H1043.38L960.5 960.555L877.617 1921ZM792.008 1909.74L960.5 960.555L631.857 1866.81L792.008 1909.74ZM552.163 1833.78L960.5 960.555L408.501 1751L552.163 1833.78ZM340.09 1698.31L960.5 960.555L222.784 1581.08L340.09 1698.31ZM170.1 1512.59L960.5 960.555L87.3256 1369L170.1 1512.59ZM54.1833 1289.22L960.5 960.555L11.3654 1129.06L54.1833 1289.22ZM0 1043.44L960.5 960.555L0.109023 877.667L0 1043.44ZM11.2564 792.053L960.5 960.555L54.2923 631.893L11.2564 792.053ZM87.2166 552.194L960.5 960.555L170.1 408.524L87.2166 552.194ZM222.675 340.11L960.5 960.555L340.008 222.797L222.675 340.11ZM408.501 170.109L960.5 960.555L552.081 87.3306L408.501 170.109ZM631.993 54.1864L960.5 960.555L792.008 11.3661L631.993 54.1864ZM877.753 0L960.5 960.555L1043.38 0.109029L877.753 0ZM1129.13 11.257L960.5 960.555L1289.14 54.2954L1129.13 11.257ZM1368.97 87.2215L960.5 960.555L1512.5 170.109L1368.97 87.2215ZM1581.05 222.688L960.5 960.555L1698.22 340.028L1581.05 222.688ZM1750.9 408.524L960.5 960.555L1833.67 552.112L1750.9 408.524ZM1866.82 632.029L960.5 960.555L1909.63 792.053L1866.82 632.029ZM1921 877.803L960.5 960.555L1920.89 1043.44L1921 877.803ZM1909.74 1129.19L960.5 960.555L1866.71 1289.22L1909.74 1129.19ZM1833.78 1369.05L960.5 960.555L1750.9 1512.59L1833.78 1369.05ZM1698.33 1581.14L960.5 960.555L1580.99 1698.31L1698.33 1581.14ZM1512.5 1751L960.5 960.555L1368.92 1833.78L1512.5 1751Z" fill="url(#paint0_radial_55_2725)" fill-opacity="0.1"/>
</g>
<defs>
<radialGradient id="paint0_radial_55_2725" cx="0" cy="0" r="1" gradientUnits="userSpaceOnUse" gradientTransform="translate(955.976 972.52) scale(639.29)">
<stop stop-color="white"/>
<stop offset="1" stop-color="white" stop-opacity="0"/>
</radialGradient>
</defs>
</svg>
