<svg width="514" height="24" viewBox="0 0 514 24" fill="none" xmlns="http://www.w3.org/2000/svg">
<path d="M72.8179 6.7958C72.1546 4.888 70.3473 3.51802 68.2243 3.51802H68.1799C66.7999 3.51802 65.5561 4.09591 64.6708 5.02361C63.784 4.09591 62.5403 3.51802 61.1617 3.51802H61.1173C59.9042 3.51802 58.7953 3.96492 57.9437 4.70461V4.3286C57.9146 3.95413 57.6082 3.65979 57.2299 3.65979H53.9736C53.5753 3.65979 53.2537 3.98341 53.2537 4.38562V22.1769C53.2537 22.5791 53.5753 22.9027 53.9736 22.9027H57.2299C57.5929 22.9027 57.8916 22.6299 57.9391 22.277L57.9376 9.50494C57.9376 9.46025 57.9391 9.41864 57.9437 9.37703C57.9958 8.80685 58.4108 8.33838 59.0664 8.27982H59.1874H59.529H59.6668C59.941 8.30447 60.1723 8.40156 60.3545 8.54796C60.6379 8.77449 60.7957 9.12276 60.7957 9.50494L60.8079 22.2139C60.8079 22.6161 61.1311 22.9412 61.5278 22.9412H64.7842C65.1686 22.9412 65.4811 22.633 65.4995 22.2493L65.4979 9.48799C65.4964 9.06882 65.6894 8.68973 66.0279 8.46474C66.1949 8.35687 66.3955 8.28444 66.6268 8.26286H66.7478H67.0894H67.2272C67.9318 8.3245 68.3576 8.86233 68.3561 9.48799L68.3683 22.18C68.3683 22.5822 68.6915 22.9058 69.0882 22.9058H72.3446C72.7413 22.9058 73.0645 22.5822 73.0645 22.18V8.52946C73.0645 7.59868 72.9603 7.20263 72.8179 6.7958Z" fill="white" fill-opacity="0.4"/>
<path d="M50.7729 3.70616H48.9104V0.670326C48.9104 0.667244 48.9104 0.664162 48.9104 0.661079C48.9104 0.295855 48.6163 -2.28882e-05 48.2533 -2.28882e-05C48.2104 -2.28882e-05 48.169 0.00613976 48.1292 0.0138454C46.0645 0.584028 46.4781 3.46114 42.7086 3.70616H42.6243H42.3425C42.2874 3.70616 42.2353 3.71387 42.1848 3.72466H42.1817L42.1848 3.7262C41.8631 3.79862 41.6211 4.08526 41.6211 4.43045V7.70669C41.6211 8.10582 41.9443 8.43097 42.3425 8.43097H44.3077L44.3046 22.3234C44.3046 22.7194 44.6232 23.04 45.0168 23.04H48.2364C48.6285 23.04 48.9471 22.7194 48.9471 22.3234L48.9487 8.43097H50.7729C51.1696 8.43097 51.4928 8.10582 51.4928 7.70669V4.43045C51.4928 4.03132 51.1696 3.70616 50.7729 3.70616Z" fill="white" fill-opacity="0.4"/>
<path d="M39.0557 3.70648H35.7993C35.4026 3.70648 35.081 4.03164 35.081 4.43077V11.2052C35.0733 11.6243 34.7364 11.9603 34.3182 11.9603H32.955C32.5323 11.9603 32.1907 11.6181 32.1907 11.1928L32.1784 4.43077C32.1784 4.03164 31.8553 3.70648 31.4586 3.70648H28.2022C27.804 3.70648 27.4823 4.03164 27.4823 4.43077V11.8555C27.4823 14.6756 29.4811 16.6866 32.2857 16.6866C32.2857 16.6866 34.3902 16.6866 34.4545 16.6989C34.8344 16.7421 35.13 17.0626 35.13 17.4571C35.13 17.847 34.8405 18.166 34.4652 18.2138C34.4469 18.2169 34.43 18.2215 34.4101 18.2246L29.6481 18.2415C29.2499 18.2415 28.9282 18.5667 28.9282 18.9658V22.2405C28.9282 22.6412 29.2499 22.9648 29.6481 22.9648H34.9722C37.7783 22.9648 39.7756 20.9553 39.7756 18.1336V4.43077C39.7756 4.03164 39.4539 3.70648 39.0557 3.70648Z" fill="white" fill-opacity="0.4"/>
<path d="M7.53742 9.70926V11.238V11.7311C7.53742 12.1549 7.19585 12.5001 6.77464 12.5001L4.7084 12.5016V8.45024H6.77464C7.19585 8.45024 7.53742 8.79235 7.53742 9.21767V9.70926ZM7.82384 3.70539H0.706106C0.315527 3.70539 0 4.02439 0 4.41581V7.62578C0 7.63195 0.00153157 7.63811 0.00153157 7.64428C0.00153157 7.65969 0 7.6751 0 7.68897V17.9846V22.2178C0 22.6123 0.294083 22.9344 0.658624 22.9437H0.719891H3.97625C4.37296 22.9437 4.69614 22.62 4.69614 22.2194L4.7084 17.2403H7.82384C10.4308 17.2403 12.2473 15.4203 12.2473 12.7867V8.16515C12.2473 5.53152 10.4308 3.70539 7.82384 3.70539Z" fill="white" fill-opacity="0.4"/>
<path d="M21.0479 17.4012V17.9129C21.0479 17.9545 21.0418 17.9945 21.0357 18.0331C21.028 18.0701 21.0173 18.1055 21.005 18.1394C20.904 18.426 20.6191 18.6341 20.2806 18.6341H18.925C18.5023 18.6341 18.1576 18.3105 18.1576 17.9129V17.2949C18.1576 17.2872 18.1561 17.2795 18.1561 17.2718L18.1576 15.6275V15.6244V15.4426V15.1128L18.1592 15.1082C18.1607 14.7121 18.5023 14.3916 18.925 14.3916H20.2806C20.7048 14.3916 21.0479 14.7137 21.0479 15.1128V17.4012ZM20.5302 3.72457H16.0118C15.612 3.72457 15.2888 4.02969 15.2888 4.40416V5.6786C15.2888 5.6863 15.2903 5.69555 15.2903 5.70325C15.2903 5.7125 15.2888 5.72175 15.2888 5.73099V7.47698C15.2888 7.87303 15.6319 8.19665 16.0546 8.19665H20.3571C20.6972 8.25058 20.9668 8.50023 21.005 8.89011V9.31236C20.9668 9.68375 20.7002 9.95497 20.3755 9.98579H18.245C15.4113 9.98579 13.3926 11.8797 13.3926 14.5395V18.2519V18.349C13.3926 20.9934 15.128 22.875 17.9417 22.875H23.8463C24.9062 22.875 25.7655 22.0675 25.7655 21.0735V8.64201C25.7655 5.62774 24.2216 3.72457 20.5302 3.72457Z" fill="white" fill-opacity="0.4"/>
<path d="M107.427 14.1668C108.896 7.97616 105.043 1.77264 98.8215 0.310856C92.6001 -1.15093 86.3657 2.68257 84.8966 8.8732C83.4276 15.0638 87.2801 21.2674 93.5016 22.7291C99.7231 24.1909 105.957 20.3574 107.427 14.1668Z" fill="white" fill-opacity="0.4"/>
<path d="M143.125 18.1023V13.9199C143.125 12.8903 142.737 12.3756 141.767 12.3756C141.379 12.3756 140.927 12.4399 140.668 12.5043V18.6171C140.668 18.8101 140.474 19.0032 140.28 19.0032H138.793C138.599 19.0032 138.405 18.8101 138.405 18.6171V11.4748C138.405 11.2174 138.599 11.0243 138.793 10.96C139.763 10.6383 140.733 10.4452 141.767 10.4452C144.095 10.4452 145.389 11.6678 145.389 13.9199V18.6814C145.389 18.8745 145.195 19.0675 145.001 19.0675H144.095C143.513 19.0675 143.125 18.6171 143.125 18.1023ZM148.945 15.5929L148.881 16.172C148.881 16.9441 149.398 17.3945 150.239 17.3945C150.885 17.3945 151.467 17.2015 152.114 16.8798C152.179 16.8798 152.243 16.8154 152.308 16.8154C152.437 16.8154 152.502 16.8798 152.566 16.9441C152.631 17.0085 152.76 17.2015 152.76 17.2015C152.89 17.3945 153.019 17.6519 153.019 17.8449C153.019 18.1667 152.825 18.4884 152.566 18.6171C151.855 19.0032 151.015 19.1962 150.109 19.1962C149.075 19.1962 148.234 18.9388 147.587 18.424C146.941 17.8449 146.553 17.0728 146.553 16.1076V13.5981C146.553 11.6034 147.846 10.3809 150.045 10.3809C152.178 10.3809 153.407 11.5391 153.407 13.5981V15.1424C153.407 15.3355 153.213 15.5285 153.019 15.5285H148.945V15.5929ZM148.881 14.1773H151.338V13.5338C151.338 12.7617 150.885 12.2469 150.109 12.2469C149.333 12.2469 148.881 12.6973 148.881 13.5338V14.1773ZM165.37 15.5929L165.306 16.172C165.306 16.9441 165.823 17.3945 166.664 17.3945C167.31 17.3945 167.892 17.2015 168.539 16.8798C168.604 16.8798 168.668 16.8154 168.733 16.8154C168.862 16.8154 168.927 16.8798 168.992 16.9441C169.056 17.0085 169.186 17.2015 169.186 17.2015C169.315 17.3945 169.444 17.6519 169.444 17.8449C169.444 18.1667 169.25 18.4884 168.992 18.6171C168.28 19.0032 167.44 19.1962 166.534 19.1962C165.5 19.1962 164.659 18.9388 164.012 18.424C163.366 17.8449 162.978 17.0728 162.978 16.1076V13.5981C162.978 11.6034 164.271 10.3809 166.47 10.3809C168.604 10.3809 169.832 11.5391 169.832 13.5981V15.1424C169.832 15.3355 169.638 15.5285 169.444 15.5285H165.37V15.5929ZM165.306 14.1773H167.763V13.5338C167.763 12.7617 167.31 12.2469 166.534 12.2469C165.758 12.2469 165.306 12.6973 165.306 13.5338V14.1773ZM127.282 19.0675H128.188C128.382 19.0675 128.576 18.8745 128.576 18.6814V13.9199C128.576 11.7321 127.412 10.4452 125.472 10.4452C124.89 10.4452 124.243 10.5739 123.855 10.7026V8.32183C123.855 7.80707 123.402 7.35665 122.885 7.35665H121.98C121.786 7.35665 121.592 7.54968 121.592 7.74272V18.6814C121.592 18.8745 121.786 19.0675 121.98 19.0675H123.467C123.661 19.0675 123.855 18.8745 123.855 18.6814V12.633C124.178 12.5043 124.631 12.4399 124.954 12.4399C125.924 12.4399 126.312 12.8903 126.312 13.9842V18.1667C126.377 18.6171 126.765 19.0675 127.282 19.0675ZM137.047 13.6625V16.0433C137.047 18.038 135.689 19.2605 133.425 19.2605C131.227 19.2605 129.804 18.038 129.804 16.0433V13.6625C129.804 11.6678 131.162 10.4452 133.425 10.4452C135.689 10.4452 137.047 11.6678 137.047 13.6625ZM134.783 13.6625C134.783 12.8903 134.331 12.3756 133.49 12.3756C132.649 12.3756 132.197 12.826 132.197 13.6625V16.0433C132.197 16.8154 132.649 17.2658 133.49 17.2658C134.331 17.2658 134.783 16.8154 134.783 16.0433V13.6625ZM120.363 12.5686C120.363 14.6277 118.811 16.0433 116.742 16.0433C116.224 16.0433 115.772 15.9789 115.319 15.7859V18.6814C115.319 18.8745 115.125 19.0675 114.931 19.0675H113.444C113.25 19.0675 113.056 18.8745 113.056 18.6814V8.45052C113.056 8.19314 113.25 8.0001 113.444 7.93576C114.414 7.61403 115.384 7.42099 116.418 7.42099C118.746 7.42099 120.363 8.83659 120.363 11.0243V12.5686ZM118.035 10.8956C118.035 9.86612 117.324 9.35135 116.354 9.35135C115.772 9.35135 115.384 9.54439 115.384 9.54439V13.7912C115.772 13.9842 115.966 14.0486 116.418 14.0486C117.388 14.0486 118.1 13.4695 118.1 12.5043V10.8956H118.035ZM162.137 12.5686C162.137 14.6277 160.585 16.0433 158.516 16.0433C157.998 16.0433 157.546 15.9789 157.093 15.7859V18.6814C157.093 18.8745 156.899 19.0675 156.705 19.0675H155.218C155.024 19.0675 154.83 18.8745 154.83 18.6814V8.45052C154.83 8.19314 155.024 8.0001 155.218 7.93576C156.188 7.61403 157.158 7.42099 158.192 7.42099C160.52 7.42099 162.137 8.83659 162.137 11.0243V12.5686ZM159.809 10.8956C159.809 9.86612 159.098 9.35135 158.128 9.35135C157.546 9.35135 157.158 9.54439 157.158 9.54439V13.7912C157.546 13.9842 157.74 14.0486 158.192 14.0486C159.162 14.0486 159.874 13.4695 159.874 12.5043V10.8956H159.809Z" fill="white" fill-opacity="0.4"/>
<path d="M101.416 8.51486C101.416 8.06445 101.028 7.67837 100.575 7.67837H99.0233L95.4667 3.62461C95.1434 3.23854 94.6261 3.10985 94.1087 3.23854L92.8801 3.62461C92.6861 3.68896 92.6214 3.94634 92.7508 4.07503L96.6307 7.74272H90.7461C90.5521 7.74272 90.4228 7.87141 90.4228 8.06445V8.7079C90.4228 9.15832 90.8108 9.54439 91.2635 9.54439H92.1688V12.633C92.1688 14.9494 93.3974 16.3007 95.4667 16.3007C96.1134 16.3007 96.6307 16.2363 97.2774 15.9789V18.038C97.2774 18.6171 97.73 19.0675 98.312 19.0675H99.2173C99.4113 19.0675 99.6053 18.8745 99.6053 18.6814V9.48004H101.093C101.287 9.48004 101.416 9.35135 101.416 9.15832V8.51486ZM97.2774 14.0486C96.8894 14.2416 96.372 14.3059 95.9841 14.3059C94.9494 14.3059 94.4321 13.7912 94.4321 12.633V9.54439H97.2774V14.0486Z" fill="black"/>
<path d="M181.839 19.7929H182.292L181.871 21.6881C181.808 21.9693 181.82 22.181 181.906 22.3222C181.992 22.4636 182.152 22.5343 182.386 22.5343C182.619 22.5343 182.809 22.4636 182.958 22.3222C183.107 22.181 183.213 21.9693 183.276 21.6881L183.696 19.7929H184.155L183.724 21.735C183.63 22.157 183.463 22.4729 183.224 22.6823C182.985 22.8921 182.672 22.9968 182.284 22.9968C181.896 22.9968 181.629 22.8923 181.484 22.6834C181.339 22.4747 181.314 22.1584 181.408 21.735L181.839 19.7929Z" fill="white" fill-opacity="0.4"/>
<path d="M184.094 22.914L184.815 19.6695L186.183 21.5774C186.22 21.6312 186.257 21.6888 186.293 21.75C186.329 21.8112 186.367 21.8799 186.405 21.9568L186.885 19.7931H187.309L186.59 23.0351L185.192 21.0932C185.155 21.0408 185.12 20.9855 185.088 20.9271C185.055 20.8688 185.025 20.8076 184.998 20.7438L184.516 22.914H184.094Z" fill="white" fill-opacity="0.4"/>
<path d="M187.271 22.913L187.964 19.7922H188.422L187.73 22.913H187.271Z" fill="white" fill-opacity="0.4"/>
<path d="M188.389 22.913L189.082 19.7922H190.656L190.56 20.2226H189.445L189.272 21.0007H190.388L190.289 21.4462H189.173L188.848 22.913H188.389Z" fill="white" fill-opacity="0.4"/>
<path d="M190.47 22.913L191.162 19.7922H191.621L190.928 22.913H190.47Z" fill="white" fill-opacity="0.4"/>
<path d="M191.584 22.913L192.277 19.7922H193.851L193.755 20.2226H192.64L192.466 21.005H193.582L193.483 21.4506H192.367L192.143 22.4589H193.259L193.158 22.913H191.584Z" fill="white" fill-opacity="0.4"/>
<path d="M194.246 22.4545H194.632C194.843 22.4545 195.006 22.4388 195.119 22.4076C195.232 22.3764 195.335 22.3237 195.43 22.2499C195.559 22.1492 195.667 22.0237 195.754 21.8737C195.84 21.7238 195.906 21.5491 195.95 21.3501C195.994 21.1511 196.006 20.9769 195.986 20.8273C195.966 20.6771 195.914 20.5517 195.83 20.4507C195.766 20.3771 195.683 20.3242 195.579 20.2928C195.474 20.2618 195.304 20.2461 195.068 20.2461H194.902H194.736L194.246 22.4545ZM193.686 22.913L194.379 19.792H194.997C195.399 19.792 195.677 19.8142 195.831 19.859C195.985 19.9039 196.112 19.979 196.211 20.0841C196.344 20.2219 196.428 20.3989 196.465 20.6147C196.501 20.8308 196.488 21.0774 196.427 21.3545C196.365 21.6316 196.269 21.8772 196.137 22.091C196.005 22.305 195.842 22.4815 195.649 22.6208C195.502 22.726 195.345 22.8009 195.178 22.8459C195.01 22.8905 194.76 22.913 194.428 22.913H194.304H193.686Z" fill="white" fill-opacity="0.4"/>
<path d="M198.66 21.0968H198.778C199.032 21.0968 199.208 21.066 199.307 21.005C199.405 20.944 199.471 20.8359 199.506 20.681C199.543 20.5147 199.524 20.3973 199.448 20.3293C199.373 20.2611 199.214 20.2267 198.971 20.2267H198.853L198.66 21.0968ZM198.539 21.5121L198.228 22.913H197.799L198.491 19.7922H199.185C199.39 19.7922 199.539 19.8045 199.631 19.8294C199.722 19.854 199.797 19.8951 199.857 19.952C199.929 20.0245 199.977 20.1222 199.999 20.245C200.022 20.3681 200.017 20.5034 199.985 20.651C199.952 20.7989 199.896 20.9353 199.818 21.0605C199.741 21.1855 199.649 21.2837 199.545 21.3545C199.461 21.4115 199.367 21.452 199.265 21.476C199.162 21.5003 199.009 21.5121 198.803 21.5121H198.713H198.539Z" fill="white" fill-opacity="0.4"/>
<path d="M200.55 21.6873H201.336L201.205 20.9752C201.198 20.9299 201.193 20.8777 201.188 20.8186C201.183 20.7596 201.179 20.6938 201.177 20.6214C201.147 20.6896 201.116 20.7532 201.086 20.8123C201.055 20.8712 201.026 20.9255 200.997 20.9752L200.55 21.6873ZM201.546 22.913L201.404 22.1094H200.286L199.781 22.913H199.299L201.385 19.6686L202.029 22.913H201.546Z" fill="white" fill-opacity="0.4"/>
<path d="M202.687 22.913L203.004 21.4846L202.43 19.7922H202.911L203.268 20.8516C203.276 20.8787 203.286 20.9142 203.297 20.9583C203.308 21.0023 203.319 21.0497 203.33 21.101C203.359 21.0513 203.388 21.0041 203.418 20.9602C203.447 20.9161 203.477 20.8758 203.508 20.8387L204.346 19.7922H204.805L203.458 21.4846L203.141 22.913H202.687Z" fill="white" fill-opacity="0.4"/>
<path d="M207.061 21.3727C207.061 21.3486 207.067 21.2819 207.08 21.1725C207.09 21.0815 207.098 21.0061 207.103 20.9463C207.076 21.0175 207.044 21.0887 207.007 21.1596C206.97 21.2306 206.927 21.3031 206.879 21.3771L205.772 23.04L205.41 21.3431C205.395 21.2733 205.383 21.2058 205.375 21.1406C205.368 21.0752 205.362 21.0105 205.36 20.9463C205.344 21.0119 205.324 21.0803 205.3 21.1522C205.275 21.2239 205.246 21.299 205.212 21.3771L204.568 22.9141H204.147L205.535 19.6609L205.93 21.6308C205.936 21.662 205.944 21.714 205.955 21.7864C205.965 21.8589 205.977 21.9484 205.99 22.0549C206.037 21.9654 206.105 21.8518 206.193 21.714C206.217 21.677 206.235 21.6486 206.247 21.6287L207.497 19.6609L207.457 22.9141H207.031L207.061 21.3727Z" fill="white" fill-opacity="0.4"/>
<path d="M207.823 22.913L208.516 19.7922H210.09L209.995 20.2226H208.879L208.705 21.005H209.821L209.722 21.4506H208.606L208.383 22.4589H209.498L209.397 22.913H207.823Z" fill="white" fill-opacity="0.4"/>
<path d="M209.925 22.914L210.645 19.6695L212.013 21.5774C212.05 21.6312 212.087 21.6888 212.123 21.75C212.16 21.8112 212.197 21.8799 212.235 21.9568L212.716 19.7931H213.14L212.42 23.0351L211.023 21.0932C210.985 21.0408 210.95 20.9855 210.918 20.9271C210.885 20.8688 210.855 20.8076 210.828 20.7438L210.347 22.914H209.925Z" fill="white" fill-opacity="0.4"/>
<path d="M214.602 20.2226L214.005 22.913H213.547L214.143 20.2226H213.394L213.49 19.7922H215.443L215.348 20.2226H214.602Z" fill="white" fill-opacity="0.4"/>
<path d="M215.077 22.2891L215.485 22.1017C215.489 22.2408 215.529 22.3471 215.605 22.4202C215.681 22.4935 215.791 22.53 215.936 22.53C216.072 22.53 216.189 22.4881 216.288 22.4042C216.387 22.3204 216.452 22.2081 216.483 22.0675C216.524 21.884 216.423 21.7206 216.18 21.5772C216.146 21.5559 216.12 21.5402 216.102 21.5302C215.828 21.3625 215.654 21.2108 215.581 21.075C215.508 20.9393 215.493 20.7734 215.536 20.5774C215.593 20.323 215.717 20.1169 215.908 19.9592C216.099 19.8014 216.321 19.7224 216.574 19.7224C216.782 19.7224 216.946 19.7668 217.066 19.8557C217.187 19.9447 217.255 20.0722 217.272 20.2384L216.869 20.4431C216.834 20.345 216.788 20.2733 216.731 20.2276C216.673 20.1822 216.601 20.1594 216.514 20.1594C216.39 20.1594 216.284 20.1952 216.196 20.2659C216.108 20.3371 216.05 20.4323 216.024 20.5518C215.982 20.7394 216.103 20.9141 216.385 21.0761C216.407 21.0888 216.424 21.099 216.436 21.106C216.684 21.2479 216.844 21.387 216.918 21.5228C216.992 21.6587 217.007 21.8281 216.961 22.0312C216.896 22.327 216.76 22.5618 216.553 22.7358C216.346 22.9097 216.099 22.9968 215.813 22.9968C215.572 22.9968 215.389 22.9358 215.263 22.8135C215.136 22.6913 215.075 22.5166 215.077 22.2891Z" fill="white" fill-opacity="0.4"/>
<path d="M218.464 22.913L219.157 19.7922H219.616L218.923 22.913H218.464Z" fill="white" fill-opacity="0.4"/>
<path d="M219.583 22.914L220.303 19.6695L221.671 21.5774C221.708 21.6312 221.745 21.6888 221.781 21.75C221.818 21.8112 221.855 21.8799 221.893 21.9568L222.374 19.7931H222.797L222.078 23.0351L220.681 21.0932C220.643 21.0408 220.608 20.9855 220.576 20.9271C220.543 20.8688 220.513 20.8076 220.486 20.7438L220.005 22.914H219.583Z" fill="white" fill-opacity="0.4"/>
<path d="M224.261 20.2226L223.664 22.913H223.206L223.803 20.2226H223.053L223.149 19.7922H225.102L225.007 20.2226H224.261Z" fill="white" fill-opacity="0.4"/>
<path d="M224.761 22.913L225.454 19.7922H227.028L226.933 20.2226H225.817L225.643 21.005H226.759L226.66 21.4506H225.545L225.321 22.4589H226.436L226.335 22.913H224.761Z" fill="white" fill-opacity="0.4"/>
<path d="M227.718 21.1222H227.801C228.044 21.1222 228.212 21.0912 228.305 21.0286C228.399 20.966 228.463 20.8553 228.498 20.6959C228.537 20.5241 228.521 20.4028 228.451 20.3326C228.381 20.2619 228.231 20.2269 228 20.2269H227.917L227.718 21.1222ZM227.602 21.5165L227.291 22.913H226.862L227.555 19.7922H228.194C228.382 19.7922 228.524 19.8056 228.622 19.8327C228.719 19.8597 228.797 19.9043 228.857 19.967C228.927 20.0421 228.973 20.1398 228.994 20.2591C229.015 20.3783 229.01 20.5091 228.978 20.651C228.923 20.9011 228.825 21.097 228.684 21.2385C228.544 21.3797 228.364 21.4649 228.144 21.4931L228.8 22.913H228.282L227.654 21.5165H227.602Z" fill="white" fill-opacity="0.4"/>
<path d="M229.071 22.913L229.764 19.7922H231.338L231.242 20.2226H230.127L229.954 21.0007H231.07L230.971 21.4462H229.855L229.53 22.913H229.071Z" fill="white" fill-opacity="0.4"/>
<path d="M231.869 21.6873H232.655L232.524 20.9752C232.517 20.9299 232.511 20.8777 232.506 20.8186C232.502 20.7596 232.498 20.6938 232.496 20.6214C232.466 20.6896 232.435 20.7532 232.405 20.8123C232.374 20.8712 232.345 20.9255 232.315 20.9752L231.869 21.6873ZM232.865 22.913L232.723 22.1094H231.605L231.099 22.913H230.618L232.704 19.6686L233.348 22.913H232.865Z" fill="white" fill-opacity="0.4"/>
<path d="M236.334 20.5518C236.232 20.4297 236.115 20.338 235.984 20.2768C235.853 20.216 235.708 20.1852 235.549 20.1852C235.24 20.1852 234.965 20.2946 234.723 20.5134C234.481 20.7323 234.322 21.0158 234.245 21.3641C234.17 21.701 234.202 21.9786 234.342 22.1974C234.482 22.4163 234.695 22.526 234.981 22.526C235.148 22.526 235.314 22.4932 235.48 22.4278C235.645 22.3624 235.812 22.2637 235.98 22.1313L235.852 22.7049C235.707 22.8029 235.557 22.8763 235.401 22.9244C235.245 22.9727 235.083 22.9968 234.913 22.9968C234.697 22.9968 234.506 22.9579 234.341 22.8796C234.175 22.8015 234.04 22.6866 233.935 22.5343C233.831 22.3851 233.764 22.2094 233.735 22.0067C233.706 21.8043 233.717 21.5885 233.768 21.3595C233.818 21.1309 233.903 20.916 234.022 20.7149C234.14 20.5137 234.286 20.3371 234.46 20.1852C234.634 20.0316 234.821 19.9156 235.019 19.8365C235.218 19.7578 235.422 19.7182 235.633 19.7182C235.799 19.7182 235.951 19.745 236.089 19.7984C236.228 19.8515 236.356 19.932 236.473 20.0404L236.334 20.5518Z" fill="white" fill-opacity="0.4"/>
<path d="M236.379 22.913L237.072 19.7922H238.646L238.55 20.2226H237.435L237.261 21.005H238.377L238.278 21.4506H237.162L236.939 22.4589H238.054L237.953 22.913H236.379Z" fill="white" fill-opacity="0.4"/>
<path d="M228.014 17.0736H224.862L229.245 -2.86102e-05H232.397L228.014 17.0736Z" fill="white" fill-opacity="0.4"/>
<path d="M226.378 0.538696C226.159 0.21381 225.822 0.0498695 225.364 0.0498695H208.031L207.173 3.39391H210.326V3.39197H222.941L222.023 6.96553H209.408L209.41 6.95812H206.257L203.641 17.1448H206.795L208.551 10.3076H222.73C223.173 10.3076 223.59 10.1447 223.982 9.81898C224.373 9.49286 224.631 9.09076 224.754 8.61057L226.51 1.77195C226.638 1.27572 226.594 0.863934 226.378 0.538696Z" fill="white" fill-opacity="0.4"/>
<path d="M201.804 16.0072C201.63 16.6832 201.059 17.1509 200.408 17.1509H184.145C183.702 17.1509 183.373 16.988 183.156 16.6626C182.94 16.3368 182.893 15.9338 183.017 15.4538L186.985 0.0492134H190.14L186.596 13.8079H199.216L202.761 0.0492134H205.915L201.804 16.0072Z" fill="white" fill-opacity="0.4"/>
<path d="M237.842 0.0316868L241.833 8.59063L233.444 17.1473L237.842 0.0316868Z" fill="white" fill-opacity="0.4"/>
<path d="M235.044 0.0316868L239.031 8.59063L230.639 17.1473L235.044 0.0316868Z" fill="white" fill-opacity="0.4"/>
<g clip-path="url(#clip0_72_570)">
<path d="M279.506 11.2559V18.0097H277.464V1.33089H282.88C283.526 1.31672 284.169 1.43702 284.771 1.68485C285.373 1.93267 285.922 2.30312 286.387 2.7748C286.856 3.21785 287.23 3.7612 287.483 4.36834C287.735 4.97547 287.861 5.63232 287.852 6.29475C287.865 6.96071 287.741 7.62186 287.488 8.23286C287.236 8.84386 286.86 9.39028 286.387 9.83465C285.44 10.7822 284.271 11.2555 282.88 11.2546H279.506V11.2559ZM279.506 3.38431V9.20652H282.931C283.306 9.2182 283.68 9.14753 284.028 8.99904C284.375 8.85055 284.69 8.6275 284.951 8.34417C285.211 8.07926 285.417 7.7624 285.558 7.41233C285.699 7.06226 285.772 6.68609 285.772 6.30606C285.772 5.92603 285.699 5.54986 285.558 5.19979C285.417 4.84972 285.211 4.53286 284.951 4.26795C284.693 3.97865 284.38 3.75014 284.031 3.59756C283.683 3.44499 283.308 3.37185 282.931 3.38297H279.506V3.38431Z" fill="white" fill-opacity="0.4"/>
<path d="M292.557 6.22528C294.067 6.22528 295.258 6.64847 296.132 7.49486C297.005 8.34124 297.441 9.50169 297.441 10.9762V18.0094H295.487V16.4258H295.398C294.553 17.73 293.428 18.3821 292.025 18.3821C290.827 18.3821 289.824 18.0094 289.017 17.2642C288.63 16.9222 288.321 16.4938 288.111 16.0103C287.902 15.5269 287.798 15.0005 287.807 14.4695C287.807 13.2887 288.233 12.3496 289.083 11.6522C289.934 10.9549 291.07 10.6054 292.49 10.6036C293.703 10.6036 294.701 10.8365 295.486 11.3023V10.8125C295.488 10.4506 295.414 10.0926 295.268 9.76461C295.122 9.43661 294.908 9.14678 294.643 8.91614C294.103 8.40496 293.399 8.12603 292.672 8.13497C291.531 8.13497 290.628 8.63978 289.964 9.64941L288.165 8.46101C289.154 6.97052 290.619 6.22528 292.557 6.22528ZM289.915 14.5161C289.914 14.7888 289.975 15.0579 290.093 15.3009C290.21 15.544 290.382 15.754 290.593 15.9134C291.044 16.2862 291.605 16.4837 292.179 16.4724C293.041 16.4709 293.867 16.111 294.476 15.4716C295.153 14.8036 295.491 14.0197 295.491 13.1201C294.854 12.5878 293.967 12.3216 292.828 12.3216C291.998 12.3216 291.306 12.5315 290.753 12.9511C290.193 13.377 289.915 13.8946 289.915 14.5161Z" fill="white" fill-opacity="0.4"/>
<path d="M308.652 6.59784L301.834 23.0398H299.726L302.256 17.2868L297.773 6.59784H299.992L303.233 14.7955H303.277L306.429 6.59784H308.652Z" fill="white" fill-opacity="0.4"/>
<path d="M271.255 9.7999C271.255 9.14695 271.203 8.49514 271.097 7.85162H262.485V11.5419H267.418C267.317 12.1313 267.103 12.6931 266.79 13.1936C266.476 13.694 266.07 14.1227 265.594 14.4537V16.8491H268.538C270.262 15.1816 271.255 12.7157 271.255 9.7999Z" fill="white" fill-opacity="0.4"/>
<path d="M262.485 19.1635C264.95 19.1635 267.025 18.3144 268.538 16.8505L265.594 14.4551C264.775 15.038 263.719 15.3707 262.485 15.3707C260.103 15.3707 258.081 13.6859 257.359 11.4156H254.326V13.8842C255.086 15.4711 256.251 16.8052 257.692 17.7374C259.133 18.6697 260.792 19.1634 262.485 19.1635Z" fill="white" fill-opacity="0.4"/>
<path d="M257.358 11.4157C256.976 10.226 256.976 8.93771 257.358 7.74804V5.27942H254.325C253.686 6.61441 253.353 8.08779 253.353 9.58187C253.353 11.076 253.686 12.5493 254.325 13.8843L257.358 11.4157Z" fill="white" fill-opacity="0.4"/>
<path d="M262.485 3.79296C263.788 3.77064 265.046 4.28692 265.988 5.23021L268.595 2.49544C266.942 0.866648 264.753 -0.0275843 262.485 0.000201403C260.792 0.000282349 259.133 0.493998 257.692 1.42623C256.251 2.35846 255.086 3.69251 254.326 5.27945L257.359 7.74807C258.081 5.47774 260.103 3.79296 262.485 3.79296Z" fill="white" fill-opacity="0.4"/>
</g>
<path d="M396.567 10.2096H393.952C389.662 10.2096 385.372 10.2096 381.083 10.2096C380.691 10.2096 380.314 10.1834 380.005 9.91547C379.553 9.5224 379.536 9.0369 379.69 8.51498C380.124 7.03699 380.562 5.56087 380.987 4.08101C381.187 3.3845 381.357 2.68052 381.544 1.98027C381.883 0.719826 382.775 0.0485189 384.114 0.0485189C390.245 0.0485189 396.375 0.045409 402.505 0.0391846C402.889 0.0391846 402.96 0.111076 402.845 0.464935C402.585 1.27349 402.344 2.08857 402.135 2.9102C402.044 3.26405 401.913 3.39757 401.502 3.3957C396.076 3.3789 390.649 3.39103 385.223 3.37143C384.743 3.37143 384.567 3.51335 384.463 3.94657C384.26 4.78686 384.017 5.62716 383.746 6.44878C383.614 6.84746 383.728 6.90814 384.116 6.90814C389.029 6.89881 393.942 6.89725 398.855 6.90348C398.966 6.90348 399.079 6.90348 399.19 6.90348C400.254 6.92495 400.784 7.57291 400.499 8.56353C400.255 9.40383 399.987 10.2441 399.746 11.0844C399.361 12.4102 399.002 13.7454 398.644 15.0805C398.3 16.3624 397.435 16.9768 396.059 16.9768C389.96 16.9768 383.862 16.9789 377.763 16.9833C377.367 16.9833 377.223 16.9506 377.379 16.5043C377.659 15.7033 377.869 14.8779 378.079 14.0553C378.161 13.7314 378.306 13.6286 378.655 13.6296C383.489 13.6439 388.323 13.647 393.157 13.6389C393.845 13.6389 394.533 13.6296 395.222 13.6436C395.49 13.6492 395.591 13.5782 395.662 13.3019C395.931 12.2926 396.247 11.2917 396.567 10.2096Z" fill="white" fill-opacity="0.4"/>
<path d="M349.115 9.10602C348.531 9.61206 347.952 10.1237 347.363 10.6251C346.594 11.2786 345.778 11.8958 345.056 12.5951C344.498 13.131 343.93 13.6558 343.358 14.1758C342.314 15.1197 341.25 16.0375 340.165 16.9945L334.65 7.86331C334.422 8.62705 334.217 9.29648 334.022 9.96872C333.694 11.1134 333.368 12.2593 333.047 13.4065C332.758 14.4158 332.465 15.4222 332.201 16.4362C332.105 16.7985 332.008 17.0235 331.533 16.9964C330.667 16.946 329.802 16.9684 328.937 16.988C328.628 16.9955 328.542 16.9301 328.631 16.6295C329.074 15.1356 329.453 13.6231 329.959 12.1479C330.307 11.1311 330.561 10.0938 330.848 9.0668C331.135 8.03977 331.409 7.02301 331.692 6.00252C332.239 4.03529 332.809 2.07553 333.401 0C333.568 0.266094 333.69 0.453761 333.805 0.642361C336.076 4.28738 338.344 7.93427 340.611 11.583C340.795 11.8809 340.899 11.8781 341.159 11.6764C342.017 10.9948 342.901 10.3328 343.723 9.62233C345.364 8.19569 347.049 6.82134 348.754 5.47407C349.781 4.66178 350.767 3.80281 351.8 2.99613C352.932 2.11195 354.028 1.16895 355.118 0.226879C355.176 0.188372 355.238 0.15405 355.302 0.124179C355.06 0.984082 354.838 1.78983 354.607 2.59372C354.376 3.3976 354.126 4.22576 353.89 5.04272C353.552 6.21291 353.215 7.38714 352.881 8.56542C352.324 10.528 351.768 12.4912 351.213 14.455C350.99 15.2336 350.762 16.0105 350.547 16.7891C350.544 16.8196 350.535 16.8491 350.52 16.8758C350.504 16.9025 350.484 16.9259 350.459 16.9445C350.434 16.9631 350.405 16.9764 350.374 16.9838C350.344 16.9911 350.312 16.9922 350.281 16.9871C349.289 16.9815 348.297 16.9787 347.301 16.9871C346.952 16.9871 347.06 16.8153 347.114 16.6267C347.617 14.8527 348.099 13.0722 348.621 11.3048C348.827 10.6055 349.051 9.9127 349.193 9.19752C349.208 9.18847 349.221 9.1766 349.231 9.16261C349.241 9.14861 349.249 9.13277 349.253 9.11601C349.257 9.09924 349.257 9.08189 349.254 9.06494C349.251 9.048 349.245 9.03181 349.235 9.01732L349.115 9.10602Z" fill="white" fill-opacity="0.4"/>
<path d="M368.248 0.0504405C371.305 0.0504405 374.362 0.0504405 377.419 0.0504405C378.658 0.0504405 379.181 0.71054 378.853 1.85614C378.397 3.45084 377.959 5.05207 377.472 6.63837C377.288 7.23311 377.121 7.83066 376.952 8.42914C376.624 9.58875 375.768 10.2031 374.53 10.2087C369.568 10.2087 364.606 10.2152 359.645 10.1984C359.23 10.1984 359.079 10.3198 358.972 10.6961C358.43 12.6782 357.848 14.6529 357.298 16.6295C357.22 16.9096 357.106 16.9955 356.817 16.988C355.92 16.9675 355.023 16.9675 354.125 16.988C353.803 16.9955 353.705 16.9395 353.801 16.609C354.708 13.4893 355.605 10.3674 356.493 7.24338C356.575 6.95675 356.717 6.90446 356.998 6.9054C361.287 6.91038 365.577 6.9082 369.866 6.89886C371.098 6.89886 372.331 6.88952 373.563 6.88579C373.755 6.88579 373.933 6.91193 374.003 6.65237C374.268 5.67109 374.536 4.69168 374.841 3.72067C374.953 3.36307 374.784 3.38175 374.531 3.38362C373.586 3.39109 372.642 3.38362 371.698 3.38362C367.168 3.38362 362.638 3.37428 358.109 3.39482C357.612 3.39482 357.609 3.25851 357.725 2.88131C357.989 2.04754 358.242 1.20818 358.446 0.360417C358.515 0.0737828 358.629 0.0429705 358.882 0.0439042C362.005 0.0526184 365.127 0.0547976 368.248 0.0504405Z" fill="white" fill-opacity="0.4"/>
<path d="M323.395 16.9814C322.947 16.9814 322.498 16.9693 322.049 16.9814C321.752 16.9926 321.645 16.9431 321.751 16.6201C322.017 15.8022 322.254 14.9759 322.486 14.1477C322.875 12.7538 323.241 11.3533 323.64 9.9612C324.136 8.21338 324.655 6.4721 325.159 4.72615C325.578 3.2743 325.998 1.82152 326.395 0.363141C326.465 0.106384 326.587 0.054099 326.825 0.0569C327.752 0.0671703 328.682 0.0802415 329.613 0.0569C329.969 0.0475633 329.962 0.168003 329.882 0.424761C329.348 2.11096 328.887 3.81303 328.387 5.50296C327.868 7.25824 327.399 9.03034 326.904 10.795C326.466 12.3551 326.013 13.9106 325.565 15.4633C325.452 15.8554 325.267 16.2261 325.237 16.6434C325.219 16.8918 325.077 17.0029 324.787 16.9833C324.324 16.9581 323.859 16.9814 323.395 16.9814Z" fill="white" fill-opacity="0.4"/>
<path d="M405.617 13.3617C404.814 13.9443 404.157 14.681 403.406 15.3224C402.988 15.6772 402.596 16.06 402.2 16.4362C402.081 16.5492 401.941 16.6473 401.794 16.5782C401.601 16.4848 401.762 16.3401 401.794 16.2196C402.704 13.0078 403.617 9.79603 404.531 6.58423C405.082 4.65155 405.652 2.72353 406.199 0.789917C406.251 0.612753 406.366 0.459747 406.525 0.359497L408.346 3.86633C409.075 5.29391 409.801 6.72241 410.537 8.14625C410.645 8.35352 410.729 8.53278 410.524 8.72232C409.584 9.59716 408.686 10.5112 407.701 11.3431C406.964 11.9649 406.224 12.5989 405.617 13.3617Z" fill="white" fill-opacity="0.4"/>
<path opacity="0.6" d="M405.617 13.3616C406.224 12.6025 406.963 11.9611 407.704 11.3402C408.688 10.5083 409.587 9.59427 410.526 8.71943C410.729 8.53269 410.648 8.34596 410.54 8.14336C409.804 6.71952 409.078 5.29101 408.349 3.86344C408.712 2.64314 409.077 1.42191 409.466 0.112915C409.687 0.526528 409.878 0.872916 410.059 1.22397C411.262 3.54226 412.455 5.87642 413.673 8.1863C413.827 8.47947 413.801 8.62886 413.558 8.84547C410.953 11.1731 408.441 13.595 405.823 15.9086C405.452 16.2363 405.095 16.5799 404.664 16.875C404.966 15.8078 405.266 14.7406 405.574 13.6744C405.604 13.5689 405.655 13.4727 405.617 13.3616Z" fill="white" fill-opacity="0.4"/>
<path d="M366.924 22.8374L368.642 19.5388C368.809 20.3847 368.954 21.1176 369.11 21.9066L370.795 19.6826C370.967 19.7498 370.892 19.8759 370.892 19.9683C370.86 20.8357 370.814 21.703 370.787 22.5714C370.779 22.8057 370.706 22.8972 370.45 22.8897C370.15 22.8804 370.22 22.6955 370.231 22.5349C370.264 22.1092 370.327 21.6844 370.282 21.2372C369.794 21.5761 369.551 22.0774 369.211 22.4985C369.115 22.6115 369.079 22.802 368.864 22.7646C368.649 22.7273 368.688 22.5405 368.656 22.3977C368.56 21.9766 368.464 21.5574 368.357 21.0775C368.1 21.5901 367.852 22.0522 367.636 22.5265C367.495 22.8281 367.31 22.97 366.924 22.8374Z" fill="white" fill-opacity="0.4"/>
<path d="M331.403 19.6657C331.449 20.676 331.285 21.6339 331.349 22.6021C331.363 22.8225 331.278 22.8897 331.049 22.8906C330.794 22.8906 330.807 22.7506 330.817 22.5918C330.847 22.125 330.88 21.6507 330.921 21.0504C330.382 21.7469 329.915 22.35 329.383 23.04C329.234 22.3603 329.102 21.759 328.965 21.1344C328.629 21.5144 328.523 22.0074 328.269 22.421C328.204 22.5265 328.173 22.6665 328.076 22.7319C327.98 22.7972 327.878 22.9065 327.746 22.8178C327.613 22.7291 327.639 22.6133 327.703 22.4901C328.193 21.5443 328.679 20.5966 329.219 19.5481C329.463 20.3884 329.447 21.1605 329.724 21.8767L331.403 19.6657Z" fill="white" fill-opacity="0.4"/>
<path d="M324.445 21.9355C325.04 21.1437 325.592 20.4089 326.211 19.5864C326.273 20.4323 326.178 21.1643 326.099 21.8906C326.076 22.1007 326.049 22.3145 326.043 22.5265C326.037 22.7384 325.984 22.8999 325.724 22.8794C325.464 22.8588 325.579 22.6544 325.584 22.5218C325.598 22.1045 325.626 21.6871 325.652 21.1904C325.045 21.7506 324.702 22.4284 324.149 22.984C323.919 22.3556 323.883 21.7263 323.704 21.0784C323.439 21.6003 323.181 22.0708 322.963 22.5573C322.828 22.8551 322.643 22.9578 322.28 22.8374C322.432 22.5367 322.569 22.2305 322.736 21.9467C323.069 21.3967 323.409 20.8515 323.62 20.2437C323.677 20.0784 323.777 19.9169 323.982 19.9412C324.187 19.9654 324.103 20.1615 324.127 20.2829C324.238 20.8057 324.333 21.3295 324.445 21.9355Z" fill="white" fill-opacity="0.4"/>
<path d="M376.823 19.6013L378.564 21.814C378.738 21.196 378.919 20.6068 379.068 20.0093C379.129 19.7637 379.255 19.6573 379.497 19.7096C379.799 19.774 379.62 19.9747 379.582 20.1073C379.313 21.0643 379.032 22.0176 378.739 23.0269L376.977 20.7963C376.797 21.4312 376.613 22.0101 376.474 22.6011C376.411 22.8719 376.26 22.9279 376.032 22.8812C375.694 22.8168 375.936 22.6011 375.969 22.4947C376.234 21.5451 376.522 20.6031 376.823 19.6013Z" fill="white" fill-opacity="0.4"/>
<path d="M337.511 22.8822C336.626 22.8822 336.626 22.8822 336.863 22.0606C337.056 21.393 337.265 20.7283 337.43 20.0532C337.502 19.7619 337.639 19.6798 337.927 19.7003C338.276 19.7255 338.628 19.7003 338.984 19.7535C339.744 19.8646 340.052 20.3287 339.939 21.0672C339.783 22.0531 338.748 23.0251 337.511 22.8822ZM337.784 22.379C338.686 22.379 339.368 21.7404 339.362 20.943C339.362 20.5042 339.125 20.2726 338.67 20.2166C338.257 20.1662 337.892 20.1363 337.783 20.6582C337.707 21.088 337.6 21.512 337.462 21.9271C337.316 22.3295 337.409 22.4612 337.784 22.379Z" fill="white" fill-opacity="0.4"/>
<path d="M396.441 22.8692C395.352 22.9961 395.687 21.8935 395.127 21.5676C395.025 21.9178 394.892 22.2744 394.822 22.6413C394.761 22.9607 394.533 22.899 394.351 22.8682C394.084 22.8225 394.284 22.6311 394.308 22.5414C394.535 21.7011 394.799 20.8608 395.022 20.0206C395.093 19.7517 395.223 19.6704 395.487 19.7022C395.645 19.7208 395.807 19.6947 395.968 19.7087C396.299 19.7386 396.674 19.7349 396.768 20.1466C396.817 20.3162 396.811 20.4965 396.751 20.6627C396.69 20.8289 396.578 20.9728 396.43 21.0747C395.757 21.5891 395.757 21.604 396.186 22.3416C396.275 22.4957 396.403 22.6385 396.441 22.8692ZM395.287 21.0224C395.892 21.0438 396.18 20.8767 396.195 20.5219C396.204 20.2745 396.021 20.1895 395.822 20.1895C395.162 20.1914 395.547 20.774 395.285 21.0261L395.287 21.0224Z" fill="white" fill-opacity="0.4"/>
<path d="M351.693 22.3836C352.018 22.3836 352.306 22.3902 352.592 22.3836C352.762 22.3836 352.872 22.4135 352.862 22.6068C352.854 22.7823 352.808 22.8962 352.585 22.8869C352.122 22.8738 351.659 22.8775 351.195 22.8869C350.975 22.8869 350.969 22.7935 351.019 22.6254C351.276 21.7459 351.529 20.8649 351.781 19.9822C351.833 19.8011 351.913 19.6919 352.142 19.7021C352.573 19.7199 353.007 19.7021 353.436 19.7087C353.539 19.7087 353.711 19.6751 353.679 19.8338C353.653 19.957 353.679 20.1718 353.444 20.1783C353.22 20.2024 352.994 20.2024 352.771 20.1783C352.298 20.0915 352.214 20.3716 352.154 20.7161C352.125 20.8814 352.169 20.942 352.34 20.9374C352.563 20.9308 352.788 20.929 353.013 20.9374C353.122 20.943 353.301 20.858 353.308 21.0597C353.317 21.1378 353.296 21.2162 353.249 21.2804C353.203 21.3447 353.134 21.3903 353.055 21.4089C352.992 21.4177 352.927 21.4199 352.863 21.4154C351.928 21.4509 351.928 21.4509 351.693 22.3836Z" fill="white" fill-opacity="0.4"/>
<path d="M391.171 22.3827C391.494 22.3827 391.793 22.3734 392.092 22.3827C392.208 22.3883 392.421 22.2893 392.399 22.5349C392.385 22.6946 392.368 22.8841 392.111 22.8813C391.573 22.8747 391.035 22.8813 390.452 22.8813C390.748 21.8655 391.035 20.9075 391.302 19.9449C391.355 19.7582 391.437 19.6956 391.63 19.7012C392.061 19.7124 392.495 19.7012 392.923 19.7012C393.049 19.7012 393.211 19.6844 393.169 19.8805C393.139 20.0261 393.114 20.1886 392.881 20.1765C392.611 20.1625 392.339 20.1765 392.067 20.1765C391.914 20.1765 391.805 20.1942 391.74 20.3632C391.547 20.8683 391.582 20.9234 392.149 20.9234C392.277 20.9234 392.406 20.9141 392.534 20.9234C392.641 20.9327 392.83 20.8543 392.813 21.0504C392.802 21.197 392.813 21.4173 392.544 21.4061C392.352 21.3977 392.16 21.422 391.967 21.3968C391.583 21.3454 391.361 21.4602 391.322 21.8636C391.31 22.0335 391.23 22.1913 391.171 22.3827Z" fill="white" fill-opacity="0.4"/>
<path d="M334.006 22.8822C333.01 22.8822 333.018 22.8822 333.316 21.9392C333.519 21.2931 333.723 20.6452 333.871 19.9869C333.929 19.7255 334.05 19.7068 334.255 19.7068C334.654 19.7068 335.054 19.7003 335.452 19.7068C335.567 19.7068 335.796 19.6135 335.746 19.8581C335.719 19.9888 335.693 20.2026 335.435 20.1811C335.211 20.1694 334.986 20.1694 334.762 20.1811C334.599 20.1811 334.436 20.1279 334.343 20.3613C334.132 20.8935 334.145 20.9346 334.706 20.9309C334.817 20.9187 334.929 20.9187 335.04 20.9309C335.166 20.9598 335.406 20.802 335.397 21.0784C335.39 21.2829 335.242 21.4033 335.019 21.408C334.796 21.4126 334.572 21.408 334.346 21.408C334.034 21.4164 333.664 22.0457 333.817 22.3089C333.887 22.4285 334.016 22.3696 334.118 22.3743C334.31 22.3836 334.502 22.3631 334.694 22.3836C334.804 22.3948 335.022 22.2735 335 22.5246C334.984 22.7011 334.963 22.9056 334.672 22.8813C334.455 22.8691 334.23 22.8832 334.006 22.8822Z" fill="white" fill-opacity="0.4"/>
<path d="M406.494 22.0914C406.378 22.8047 405.853 23.0904 404.955 22.9578C404.789 22.9359 404.629 22.881 404.485 22.7965C404.341 22.712 404.217 22.5997 404.119 22.4665C404.022 22.3333 403.954 22.1822 403.919 22.0224C403.885 21.8626 403.884 21.6977 403.918 21.5377C404.019 21.0331 404.286 20.574 404.679 20.23C405.072 19.886 405.57 19.6758 406.098 19.6312C406.442 19.6041 406.701 19.7824 406.978 19.9113C407.161 19.9981 407.134 20.1774 407.054 20.3174C406.974 20.4575 406.845 20.3828 406.727 20.3249C405.694 19.8216 404.619 20.4939 404.516 21.6189C404.463 22.1847 404.997 22.5759 405.61 22.4434C405.922 22.3712 406.22 22.2525 406.494 22.0914Z" fill="white" fill-opacity="0.4"/>
<path d="M408.906 22.8822C408.007 22.8822 408.002 22.8822 408.233 22.0419C408.425 21.3575 408.627 20.6788 408.81 19.9944C408.867 19.7796 408.969 19.6891 409.208 19.6984C409.622 19.7161 410.037 19.6984 410.453 19.7049C410.568 19.7049 410.751 19.6629 410.706 19.8646C410.679 19.9925 410.691 20.1914 410.445 20.1811C410.156 20.169 409.868 20.1746 409.58 20.1811C409.461 20.1811 409.363 20.1634 409.291 20.3296C409.051 20.8674 409.082 20.9327 409.69 20.9327C409.818 20.9327 409.946 20.9271 410.075 20.9327C410.204 20.9383 410.369 20.8795 410.357 21.0756C410.348 21.239 410.309 21.4182 410.058 21.4098C409.787 21.4005 409.515 21.4098 409.244 21.4098C409.061 21.4042 408.979 21.4546 408.913 21.646C408.66 22.3836 408.646 22.3743 409.49 22.393C409.652 22.393 409.898 22.2819 409.904 22.6086C409.909 22.9354 409.693 22.8887 409.483 22.8887C409.288 22.8794 409.097 22.8822 408.906 22.8822Z" fill="white" fill-opacity="0.4"/>
<path d="M373.007 22.3837C373.338 22.3837 373.641 22.3902 373.944 22.3837C374.136 22.3772 374.217 22.4575 374.195 22.6293C374.177 22.7656 374.153 22.8963 373.942 22.8907C373.461 22.8776 372.981 22.8832 372.5 22.8907C372.308 22.8907 372.294 22.8151 372.339 22.6601C372.605 21.7501 372.865 20.8388 373.121 19.9263C373.173 19.7396 373.291 19.7004 373.474 19.705C373.874 19.7162 374.274 19.7004 374.674 19.7134C374.791 19.7134 375.008 19.6201 374.995 19.8516C374.996 19.8946 374.989 19.9375 374.972 19.9776C374.956 20.0177 374.932 20.0543 374.901 20.0851C374.87 20.1159 374.833 20.1403 374.792 20.1568C374.751 20.1733 374.707 20.1816 374.663 20.1812C374.392 20.1812 374.119 20.1812 373.848 20.1812C373.701 20.1812 373.572 20.1691 373.523 20.3969C373.407 20.9393 373.382 20.9347 373.972 20.9337C374.101 20.9337 374.228 20.9244 374.356 20.9337C374.484 20.9431 374.645 20.8796 374.639 21.0766C374.631 21.2418 374.601 21.4267 374.344 21.4136C374.136 21.4034 373.925 21.4342 373.721 21.4052C373.368 21.3567 373.189 21.479 373.15 21.8272C373.115 22.0157 373.067 22.2016 373.007 22.3837Z" fill="white" fill-opacity="0.4"/>
<path d="M345.691 19.5537C345.817 20.3315 345.913 20.9934 346.035 21.6507C346.092 21.9635 346.204 22.266 346.276 22.576C346.304 22.6964 346.39 22.8906 346.142 22.8766C345.98 22.8673 345.725 23.0241 345.681 22.6591C345.658 22.4723 345.759 22.0895 345.429 22.0989C344.977 22.1129 344.429 21.8309 344.094 22.4117C343.917 22.717 343.709 23.0521 343.189 22.8169L345.691 19.5537ZM344.657 21.6171C345.476 21.647 345.475 21.647 345.415 20.9775C345.409 20.9066 345.407 20.8356 345.401 20.7161C345.025 20.9309 345.007 21.3389 344.656 21.6171H344.657Z" fill="white" fill-opacity="0.4"/>
<path d="M362.206 19.6835C362.404 20.6632 362.604 21.6463 362.804 22.6329C362.829 22.7589 362.856 22.9055 362.65 22.8775C362.502 22.8579 362.227 23.0008 362.232 22.7281C362.243 22.0027 361.76 22.054 361.253 22.0746C360.942 22.0848 360.694 22.1306 360.58 22.4536C360.527 22.5489 360.462 22.6379 360.388 22.7188C360.258 22.9111 360.085 22.9532 359.907 22.8122C359.643 22.6077 359.976 22.6021 360.031 22.5022C360.565 21.5359 361.393 20.7749 361.985 19.8497C362.029 19.7731 362.057 19.6657 362.206 19.6835ZM361.917 20.6759C361.565 20.9626 361.477 21.3295 361.237 21.6208C361.984 21.6432 361.983 21.6432 361.932 20.9803C361.925 20.9084 361.923 20.8263 361.916 20.6759H361.917Z" fill="white" fill-opacity="0.4"/>
<path d="M357.067 22.8383C357.346 21.8629 357.624 20.8875 357.901 19.9122C357.917 19.8552 357.943 19.7628 357.979 19.7562C358.451 19.6629 358.948 19.6237 359.385 19.8085C359.641 19.9168 359.8 20.1988 359.695 20.5554C359.542 21.0671 359.287 21.3098 358.768 21.3957C358.552 21.4303 358.345 21.5068 358.121 21.4891C357.971 21.4742 357.95 21.5582 357.929 21.6814C357.874 21.9531 357.797 22.2211 357.719 22.4881C357.591 22.9045 357.588 22.9036 357.067 22.8383ZM359.119 20.4565C359.052 20.2063 358.825 20.1661 358.603 20.1913C358.174 20.2399 358.286 20.6348 358.228 20.8766C358.173 21.0998 358.488 21.0764 358.605 21.0634C358.932 21.0288 359.054 20.7665 359.119 20.4565Z" fill="white" fill-opacity="0.4"/>
<path d="M388.502 19.6461C388.652 19.6742 388.83 19.6583 388.987 19.7591C389.144 19.86 389.266 20 389.185 20.1615C389.094 20.3483 388.91 20.3128 388.734 20.2222C388.446 20.0738 388.172 20.0122 387.925 20.3156C387.746 20.5341 387.773 20.7068 387.989 20.8664C388.091 20.941 388.197 21.0093 388.307 21.0709C388.633 21.2577 388.965 21.4444 388.855 21.8851C388.754 22.2903 388.599 22.6824 388.096 22.7777C387.836 22.8271 387.615 23.0036 387.332 22.9775C387.048 22.9513 386.815 22.843 386.692 22.5741C386.616 22.4089 386.554 22.2576 386.804 22.1633C386.974 22.0989 387.081 22.0382 387.215 22.2567C387.4 22.5554 387.888 22.5704 388.111 22.2968C388.275 22.0961 388.364 21.8515 388.082 21.6479C387.994 21.5813 387.903 21.5189 387.81 21.4612C387.418 21.2371 387.036 21.014 387.227 20.4659C387.398 19.9692 387.895 19.6424 388.502 19.6461Z" fill="white" fill-opacity="0.4"/>
<path d="M399.087 21.758C399.525 21.1521 399.928 20.5984 400.326 20.041C400.577 19.69 400.575 19.6872 401.117 19.7497C400.714 20.3099 400.329 20.8412 399.942 21.3734C399.555 21.9056 399.173 22.4293 398.73 23.0306C398.588 22.1642 398.461 21.3771 398.333 20.59C398.303 20.4098 398.261 20.2306 398.237 20.0494C398.212 19.8823 398.225 19.7441 398.472 19.7693C398.634 19.7824 398.709 19.7264 398.785 19.9813C398.951 20.5424 398.958 21.1222 399.087 21.758Z" fill="white" fill-opacity="0.4"/>
<path d="M348.789 20.1774H347.971C347.955 19.8142 348.096 19.6797 348.452 19.6975C348.976 19.7245 349.509 19.7021 350.031 19.7068C350.144 19.7068 350.337 19.6508 350.31 19.8431C350.292 19.9804 350.289 20.2352 350.021 20.1746C349.382 20.028 349.257 20.4098 349.156 20.8879C349.035 21.4481 348.859 21.9877 348.7 22.5349C348.666 22.6478 348.626 22.8038 348.539 22.8476C348.408 22.904 348.259 22.9107 348.123 22.8663C347.93 22.8019 348.085 22.6432 348.109 22.5517C348.318 21.7711 348.551 20.9962 348.789 20.1774Z" fill="white" fill-opacity="0.4"/>
<path d="M367.016 19.7404C366.761 20.013 366.567 20.2539 366.338 20.4584C365.707 21.0186 365.219 21.6628 365.049 22.4938C365.004 22.7122 364.907 22.9111 364.665 22.8383C364.422 22.7655 364.483 22.5274 364.574 22.3659C365.014 21.5872 364.654 20.8785 364.406 20.1521C364.362 20.0224 364.085 19.8151 364.419 19.7152C364.652 19.6442 364.886 19.6816 364.95 20.0074C365.008 20.2481 365.091 20.4822 365.199 20.7058C365.231 20.7796 365.169 20.9149 365.295 20.9224C365.352 20.9257 365.408 20.9109 365.455 20.8802C365.502 20.8495 365.538 20.8046 365.556 20.7525C365.685 20.421 366.008 20.2399 366.214 19.9691C366.393 19.7264 366.626 19.6508 367.016 19.7404Z" fill="white" fill-opacity="0.4"/>
<path d="M381.935 20.1783C381.718 20.1783 381.559 20.1895 381.401 20.1783C381.299 20.168 381.113 20.2716 381.13 20.041C381.143 19.887 381.153 19.7124 381.378 19.7105C382.016 19.7105 382.656 19.7105 383.294 19.7105C383.378 19.7105 383.477 19.7254 383.461 19.8216C383.439 19.9505 383.43 20.1017 383.284 20.1764C383.254 20.1899 383.22 20.1928 383.188 20.1848C382.495 20.0177 382.407 20.478 382.284 20.9607C382.143 21.5097 381.912 22.0363 381.772 22.5853C381.707 22.842 381.586 22.857 381.388 22.8121C381.126 22.7533 381.25 22.589 381.292 22.4518C381.499 21.7095 381.709 20.9747 381.935 20.1783Z" fill="white" fill-opacity="0.4"/>
<path d="M401.583 22.9065C401.89 21.8542 402.182 20.8832 402.448 19.9048C402.526 19.6181 402.737 19.6994 402.902 19.7124C403.182 19.7358 403.005 19.9169 402.976 20.0205C402.74 20.8832 402.477 21.7385 402.259 22.6049C402.154 23.026 401.872 22.8318 401.583 22.9065Z" fill="white" fill-opacity="0.4"/>
<path d="M320.427 22.8794C320.163 22.9186 320.133 22.8131 320.199 22.589C320.455 21.7329 320.692 20.872 320.941 20.014C320.994 19.8319 321.057 19.6788 321.326 19.6956C321.552 19.7105 321.598 19.774 321.537 19.9757C321.318 20.6984 321.118 21.4257 320.888 22.1446C320.823 22.2963 320.783 22.457 320.77 22.6208C320.769 22.8495 320.635 22.9121 320.427 22.8794Z" fill="white" fill-opacity="0.4"/>
<path d="M341.446 22.8822C341.265 22.9027 341.14 22.8822 341.204 22.6404C341.443 21.7254 341.806 20.844 341.984 19.9132C342.034 19.6527 342.265 19.6807 342.443 19.7077C342.723 19.7507 342.555 19.9514 342.524 20.0672C342.293 20.8972 342.043 21.7217 341.809 22.5517C341.756 22.7459 341.716 22.9186 341.446 22.8822Z" fill="white" fill-opacity="0.4"/>
<path d="M431.144 0.614807L425.289 17.7704H428.729L430.383 12.7642H435.14L436.838 17.7704H440.351L434.482 0.614807H431.144ZM434.306 9.90985H431.232L432.52 6.13328C432.608 5.8698 432.696 5.62096 432.769 5.37211C432.857 5.6356 432.93 5.89908 433.032 6.1772L434.306 9.90985Z" fill="white" fill-opacity="0.4"/>
<path d="M446.133 9.95372C444.553 9.32429 444.377 9.03153 444.377 8.57776C444.377 7.99225 444.86 7.64094 445.65 7.64094C446.573 7.64094 447.304 8.00688 447.656 8.22645L448.329 8.65095L449.222 5.92831L448.812 5.66482C448.036 5.1525 446.865 4.85974 445.68 4.85974C443.03 4.85974 441.113 6.52846 441.113 8.84124C441.113 10.9637 442.986 12.0908 444.567 12.6617C446.133 13.2472 446.265 13.6571 446.265 14.1548C446.265 15.0916 445.284 15.2234 444.699 15.2234C443.791 15.2234 442.811 14.8428 442.254 14.5061L441.581 14.1109L440.703 16.8774L441.127 17.1263C442.093 17.6971 443.381 18.0192 444.655 18.0192C447.568 18.0192 449.529 16.3797 449.529 13.9499C449.529 11.5053 447.583 10.4953 446.133 9.95372Z" fill="white" fill-opacity="0.4"/>
<path d="M454.697 2.13715L451.418 3.13252V5.09399H449.647V7.9191H451.418V13.5254C451.418 15.0917 451.725 16.2041 452.384 16.9507C453.028 17.6386 453.979 18.0339 455.092 18.0339C456.087 18.0339 456.804 17.8289 457.141 17.7118L457.58 17.5655L457.405 14.7257L456.643 14.9453C456.424 15.0038 456.16 15.0624 455.619 15.0624C455.224 15.0624 454.682 15.0624 454.682 13.4669V7.9191H457.653V5.09399H454.697V2.13715Z" fill="white" fill-opacity="0.4"/>
<path d="M465.66 4.97689L465.06 4.88907C464.884 4.85979 464.709 4.84515 464.475 4.84515C463.435 4.84515 462.484 5.26965 461.752 6.01618L461.708 5.094H458.634L458.678 5.7527C458.736 6.73344 458.78 7.84591 458.78 9.28043V17.7704H462.103V11.0662C462.103 10.7589 462.132 10.4368 462.162 10.2172C462.411 8.89984 463.23 8.08012 464.343 8.08012C464.606 8.08012 464.767 8.08012 464.914 8.1094L465.675 8.27041L465.66 4.97689Z" fill="white" fill-opacity="0.4"/>
<path d="M471.706 4.85974C468.002 4.85974 465.411 7.59702 465.411 11.5346C465.411 15.3697 467.915 18.0338 471.515 18.0338C474.56 18.0338 477.824 15.9406 477.824 11.3443C477.839 7.52383 475.321 4.85974 471.706 4.85974ZM474.472 11.4175C474.472 13.6278 473.272 15.238 471.633 15.238C469.993 15.238 468.807 13.6425 468.807 11.4761C468.807 10.0708 469.408 7.68485 471.676 7.68485C473.887 7.65557 474.472 10.1147 474.472 11.4175Z" fill="white" fill-opacity="0.4"/>
<path d="M488.73 1.97604C487.646 0.995308 485.992 0.49762 483.855 0.49762C482.421 0.49762 481.059 0.600086 479.8 0.805016L479.288 0.892844V17.7703H482.582V11.5053C482.918 11.5346 483.27 11.5492 483.621 11.5492C485.846 11.5492 487.734 10.8612 488.935 9.61701C489.871 8.65091 490.34 7.36278 490.34 5.78189C490.325 4.24491 489.754 2.89823 488.73 1.97604ZM487.032 5.88435C487.032 8.28496 484.924 8.63627 483.665 8.63627C483.24 8.63627 482.889 8.62164 482.596 8.57772V3.42519C482.918 3.38128 483.357 3.36664 483.914 3.36664C485.319 3.36664 487.032 3.80578 487.032 5.88435Z" fill="white" fill-opacity="0.4"/>
<path d="M500.425 14.4036V10.1294C500.425 6.71875 498.654 4.85974 495.463 4.85974C493.985 4.85974 492.433 5.2696 491.364 5.94294L490.94 6.20642L491.833 8.84124L492.506 8.38747C493.194 7.91906 494.19 7.64094 495.156 7.64094C495.829 7.6263 496.312 7.78732 496.634 8.09471C496.898 8.35819 497.059 8.75342 497.117 9.2511C494.526 9.32429 492.638 9.93908 491.467 11.0955C490.662 11.9006 490.252 12.9106 490.252 14.1255C490.252 16.0723 491.657 18.0338 494.38 18.0338C495.536 18.0338 496.619 17.6679 497.468 17.0238L497.556 17.785H500.703L500.586 17.0677C500.484 16.3651 500.425 15.4722 500.425 14.4036ZM494.892 15.2526C494.395 15.2526 493.575 15.077 493.575 13.8913C493.575 13.4375 493.707 13.0716 493.999 12.7935C494.38 12.4129 495.244 11.9737 497.176 11.9445V13.3058C497.176 13.4083 497.161 13.5839 497.117 13.7596C496.883 14.4475 496.166 15.2526 494.892 15.2526Z" fill="white" fill-opacity="0.4"/>
<path d="M509.574 5.09399L507.159 12.2226C507.1 12.3983 507.042 12.5886 506.983 12.7642C506.925 12.5886 506.866 12.4129 506.793 12.2519L504.158 5.09399H500.542L505.08 16.4676L505.095 16.4969C505.168 16.6433 505.197 16.7311 505.197 16.7604C505.168 16.8189 505.124 16.936 505.095 17.0092C504.7 17.8436 504.114 18.634 503.529 19.1024L503.514 19.1171C502.855 19.6879 502.182 19.9368 501.904 20.01L501.318 20.2003L502.167 23.04L502.709 22.9376C503.045 22.879 504.217 22.6009 505.563 21.4738C507.173 20.0393 508.242 17.7704 509.647 14.0816L513.087 5.09399H509.574Z" fill="white" fill-opacity="0.4"/>
<path d="M437.409 5.32818C439.546 3.14714 443.177 1.84437 447.114 1.84437C448.651 1.84437 450.144 2.03466 451.564 2.42989L451.681 2.45916L454.199 1.69799L453.072 1.25886C450.92 0.439137 448.446 0 445.899 0C442.196 0 438.741 0.892909 436.18 2.51771L435.901 2.69337L436.97 5.81123L437.409 5.32818Z" fill="white" fill-opacity="0.4"/>
<defs>
<clipPath id="clip0_72_570">
<rect width="55.296" height="23.04" fill="white" transform="translate(253.353)"/>
</clipPath>
</defs>
</svg>
